<?xml version="1.0" encoding="UTF-8"?>
<svg width="1125px" height="288px" viewBox="0 0 1125 288" version="1.1" xmlns="http://www.w3.org/2000/svg" xmlns:xlink="http://www.w3.org/1999/xlink">
    <title>Group 24</title>
    <defs>
        <polygon id="path-1" points="346.379506 1.85567183 1124.68267 1.85567183 1124.68267 288 346.379506 288"></polygon>
    </defs>
    <g id="Page-1" stroke="none" stroke-width="1" fill="none" fill-rule="evenodd">
        <g id="Group-24">
            <path d="M8.64367816,49.7011494 C13.4174498,49.7011494 17.2873563,53.605396 17.2873563,58.4215283 L17.2873563,137.14169 C17.2873563,141.957822 13.4174498,145.862069 8.64367816,145.862069 C3.86990653,145.862069 0,141.957822 0,137.14169 L0,58.4215283 C0,53.605396 3.86990653,49.7011494 8.64367816,49.7011494 Z M273.356322,115.609195 C278.130093,115.609195 282,119.544392 282,124.398702 L282,132.750723 C282,137.605034 278.130093,141.54023 273.356322,141.54023 C268.58255,141.54023 264.712644,137.605034 264.712644,132.750723 L264.712644,124.398702 C264.712644,119.544392 268.58255,115.609195 273.356322,115.609195 Z M273.356322,53.4827586 C278.130093,53.4827586 282,57.3884215 282,62.2063008 L282,91.2189865 C282,96.0368658 278.130093,99.9425287 273.356322,99.9425287 C268.58255,99.9425287 264.712644,96.0368658 264.712644,91.2189865 L264.712644,62.2063008 C264.712644,57.3884215 268.58255,53.4827586 273.356322,53.4827586 Z M42.137931,20.5287356 C46.9117027,20.5287356 50.7816092,24.4448351 50.7816092,29.2755886 L50.7816092,74.9887792 C50.7816092,79.8195327 46.9117027,83.7356322 42.137931,83.7356322 C37.3641594,83.7356322 33.4942529,79.8195327 33.4942529,74.9887792 L33.4942529,29.2755886 C33.4942529,24.4448351 37.3641594,20.5287356 42.137931,20.5287356 Z M239.862069,19.9885057 C244.635841,19.9885057 248.505747,23.8941686 248.505747,28.712048 L248.505747,57.7247336 C248.505747,62.542613 244.635841,66.4482759 239.862069,66.4482759 C235.088297,66.4482759 231.218391,62.542613 231.218391,57.7247336 L231.218391,28.712048 C231.218391,23.8941686 235.088297,19.9885057 239.862069,19.9885057 Z M239.862069,82.6551724 C244.635841,82.6551724 248.505747,86.5453457 248.505747,91.3441177 L248.505747,173.908756 C248.505747,178.707528 244.635841,182.597701 239.862069,182.597701 C235.088297,182.597701 231.218391,178.707528 231.218391,173.908756 L231.218391,91.3441177 C231.218391,86.5453457 235.088297,82.6551724 239.862069,82.6551724 Z M42.137931,103.183908 C46.9117027,103.183908 50.7816092,107.079596 50.7816092,111.885171 L50.7816092,173.896438 C50.7816092,178.702013 46.9117027,182.597701 42.137931,182.597701 C37.3641594,182.597701 33.4942529,178.702013 33.4942529,173.896438 L33.4942529,111.885171 C33.4942529,107.079596 37.3641594,103.183908 42.137931,103.183908 Z M74.5517241,136.678161 C79.3254958,136.678161 83.1954023,140.573849 83.1954023,145.379424 L83.1954023,207.390691 C83.1954023,212.196266 79.3254958,216.091954 74.5517241,216.091954 C69.7779525,216.091954 65.908046,212.196266 65.908046,207.390691 L65.908046,145.379424 C65.908046,140.573849 69.7779525,136.678161 74.5517241,136.678161 Z M108.045977,197.724138 C112.819749,197.724138 116.689655,201.643475 116.689655,206.478222 L116.689655,239.751663 C116.689655,244.58641 112.819749,248.505747 108.045977,248.505747 C103.272205,248.505747 99.4022989,244.58641 99.4022989,239.751663 L99.4022989,206.478222 C99.4022989,201.643475 103.272205,197.724138 108.045977,197.724138 Z M108.045977,99.4022989 C112.819749,99.4022989 116.689655,103.281552 116.689655,108.066853 L116.689655,173.933147 C116.689655,178.718448 112.819749,182.597701 108.045977,182.597701 C103.272205,182.597701 99.4022989,178.718448 99.4022989,173.933147 L99.4022989,108.066853 C99.4022989,103.281552 103.272205,99.4022989 108.045977,99.4022989 Z M108.045977,33.4942529 C112.819749,33.4942529 116.689655,37.4135898 116.689655,42.2483368 L116.689655,75.5217781 C116.689655,80.3565252 112.819749,84.2758621 108.045977,84.2758621 C103.272205,84.2758621 99.4022989,80.3565252 99.4022989,75.5217781 L99.4022989,42.2483368 C99.4022989,37.4135898 103.272205,33.4942529 108.045977,33.4942529 Z M74.5517241,0 C79.3254958,0 83.1954023,3.89799667 83.1954023,8.70641924 L83.1954023,107.983236 C83.1954023,112.791659 79.3254958,116.689655 74.5517241,116.689655 C69.7779525,116.689655 65.908046,112.791659 65.908046,107.983236 L65.908046,8.70641924 C65.908046,3.89799667 69.7779525,0 74.5517241,0 Z M207.448276,0 C212.222047,0 216.091954,3.91933689 216.091954,8.75408396 L216.091954,42.0275252 C216.091954,46.8622723 212.222047,50.7816092 207.448276,50.7816092 C202.674504,50.7816092 198.804598,46.8622723 198.804598,42.0275252 L198.804598,8.75408396 C198.804598,3.91933689 202.674504,0 207.448276,0 Z M207.448276,65.908046 C212.222047,65.908046 216.091954,69.8273829 216.091954,74.6621299 L216.091954,107.935571 C216.091954,112.770318 212.222047,116.689655 207.448276,116.689655 C202.674504,116.689655 198.804598,112.770318 198.804598,107.935571 L198.804598,74.6621299 C198.804598,69.8273829 202.674504,65.908046 207.448276,65.908046 Z M207.448276,132.356322 C212.222047,132.356322 216.091954,136.235575 216.091954,141.020876 L216.091954,206.88717 C216.091954,211.672471 212.222047,215.551724 207.448276,215.551724 C202.674504,215.551724 198.804598,211.672471 198.804598,206.88717 L198.804598,141.020876 C198.804598,136.235575 202.674504,132.356322 207.448276,132.356322 Z M141,247.425287 C145.773772,247.425287 149.643678,251.393962 149.643678,256.28957 L149.643678,273.135718 C149.643678,278.031326 145.773772,282 141,282 C136.226228,282 132.356322,278.031326 132.356322,273.135718 L132.356322,256.28957 C132.356322,251.393962 136.226228,247.425287 141,247.425287 Z M141,198.264368 C145.773772,198.264368 149.643678,202.233042 149.643678,207.12865 L149.643678,223.974798 C149.643678,228.870406 145.773772,232.83908 141,232.83908 C136.226228,232.83908 132.356322,228.870406 132.356322,223.974798 L132.356322,207.12865 C132.356322,202.233042 136.226228,198.264368 141,198.264368 Z M173.954023,165.310345 C178.727795,165.310345 182.597701,169.189598 182.597701,173.974899 L182.597701,239.841193 C182.597701,244.626494 178.727795,248.505747 173.954023,248.505747 C169.180251,248.505747 165.310345,244.626494 165.310345,239.841193 L165.310345,173.974899 C165.310345,169.189598 169.180251,165.310345 173.954023,165.310345 Z M141,66.4482759 C145.773772,66.4482759 149.643678,70.3462725 149.643678,75.1546951 L149.643678,174.431512 C149.643678,179.239934 145.773772,183.137931 141,183.137931 C136.226228,183.137931 132.356322,179.239934 132.356322,174.431512 L132.356322,75.1546951 C132.356322,70.3462725 136.226228,66.4482759 141,66.4482759 Z M173.954023,33.4942529 C178.727795,33.4942529 182.597701,37.3922495 182.597701,42.2006721 L182.597701,141.477489 C182.597701,146.285911 178.727795,150.183908 173.954023,150.183908 C169.180251,150.183908 165.310345,146.285911 165.310345,141.477489 L165.310345,42.2006721 C165.310345,37.3922495 169.180251,33.4942529 173.954023,33.4942529 Z" id="Herz-Copy" fill="#E61C3E" fill-rule="nonzero"></path>
            <mask id="mask-2" fill="white">
                <use xlink:href="#path-1"></use>
            </mask>
            <g id="Clip-18"></g>
            <path d="M346.379506,274.724086 C346.379506,279.548026 350.948141,283.579174 355.516775,283.579174 L388.316884,283.579174 C395.787945,283.579174 398.273819,279.951141 398.273819,274.724086 L398.273819,172.091055 C403.259006,153.184971 415.715254,139.492505 438.128437,139.492505 C460.958172,139.492505 472.997868,155.187108 472.997868,180.946144 L472.997868,274.724086 C472.997868,279.548026 477.14995,283.579174 482.135137,283.579174 L515.768349,283.579174 C520.336983,283.579174 524.905618,279.548026 524.905618,274.724086 L524.905618,181.349259 C524.905618,134.668564 508.297288,93.6180394 447.265706,93.6180394 C424.435971,93.6180394 407.82764,101.263784 398.273819,109.312643 L398.273819,10.7107605 C398.273819,6.27649757 394.121737,1.85567183 389.13655,1.85567183 L355.516775,1.85567183 C350.948141,1.85567183 346.379506,6.27649757 346.379506,10.7107605 L346.379506,274.724086 Z M551.470884,190.607462 C551.470884,243.737994 591.325501,288 648.608115,288 C679.755453,288 703.418292,276.336545 720.026622,262.644079 C724.58182,258.626368 724.165268,254.192105 720.846289,250.577509 L704.654511,229.642413 C701.752084,225.624702 696.766898,226.027817 692.198263,229.642413 C683.490984,236.495365 670.201632,243.334879 651.107427,243.334879 C623.292506,243.334879 603.768312,223.206013 603.365197,200.268781 L726.248028,200.268781 C730.40011,200.268781 734.968745,196.640747 735.385297,191.816807 C735.801849,188.995003 736.204963,182.558603 736.204963,179.7368 C736.204963,129.441509 698.016554,93.6180394 648.191564,93.6180394 C591.325501,93.6180394 551.470884,138.28316 551.470884,190.607462 L551.470884,190.607462 Z M606.267623,167.267115 C608.753498,148.750708 623.69562,135.071679 646.955345,135.071679 C668.118872,135.071679 683.074432,149.153823 683.894098,167.267115 L606.267623,167.267115 Z M763.186781,274.724086 C763.186781,279.548026 767.755416,283.579174 772.32405,283.579174 L805.957262,283.579174 C810.525897,283.579174 815.081094,279.548026 815.081094,274.724086 L815.081094,10.7107605 C815.081094,6.27649757 810.525897,1.85567183 805.957262,1.85567183 L772.32405,1.85567183 C767.755416,1.85567183 763.186781,6.27649757 763.186781,10.7107605 L763.186781,274.724086 Z M856.185367,274.724086 C856.185367,279.548026 860.754002,283.579174 865.322636,283.579174 L898.942412,283.579174 C903.511046,283.579174 908.07968,279.548026 908.07968,274.724086 L908.07968,106.490839 C908.07968,101.263784 903.511046,97.6357503 898.942412,97.6357503 L865.322636,97.6357503 C860.754002,97.6357503 856.185367,101.263784 856.185367,106.490839 L856.185367,274.724086 Z M881.514415,65.8434291 C900.192067,65.8434291 914.717638,51.3581703 914.717638,33.6479931 C914.717638,15.9378158 900.192067,1.85567183 881.514415,1.85567183 C862.823325,1.85567183 848.714306,15.9378158 848.714306,33.6479931 C848.714306,51.3581703 862.823325,65.8434291 881.514415,65.8434291 L881.514415,65.8434291 Z M939.213581,283.579174 L982.387177,283.579174 C985.289603,283.579174 988.622019,281.966715 990.27479,279.951141 L1027.64353,224.818472 L1028.47664,224.818472 L1063.76262,275.93343 C1067.0816,280.757371 1070.81713,283.579174 1077.05197,283.579174 L1116.90659,283.579174 C1124.7942,283.579174 1126.86352,275.93343 1122.29489,269.900145 L1062.92952,188.188773 L1121.87834,111.328217 C1126.86352,105.281495 1124.7942,97.6357503 1116.49004,97.6357503 L1075.80232,97.6357503 C1069.15092,97.6357503 1064.99884,98.8450947 1061.26331,104.085587 L1028.47664,152.781856 L1027.64353,152.781856 L995.676528,104.085587 C991.107894,98.0388651 986.122707,97.6357503 979.901302,97.6357503 L942.116007,97.6357503 C934.228394,97.6357503 930.492864,105.281495 935.47805,111.328217 L994.01032,188.995003 L932.978738,269.900145 C928.826656,275.93343 930.909416,283.579174 939.213581,283.579174 L939.213581,283.579174 Z" id="Fill-17" fill="#2A2C2E" mask="url(#mask-2)"></path>
        </g>
    </g>
</svg>